<?xml version="1.0" encoding="utf-8"?>
<!-- Generator: Adobe Illustrator 22.0.1, SVG Export Plug-In . SVG Version: 6.00 Build 0)  -->
<svg version="1.1" id="Camada_1" xmlns="http://www.w3.org/2000/svg" xmlns:xlink="http://www.w3.org/1999/xlink" x="0px" y="0px"
	 viewBox="0 0 462.3 91.4" style="enable-background:new 0 0 462.3 91.4;" xml:space="preserve">
<style type="text/css">
	.st0{fill:#FFFFFF;}
	.st1{fill:#D68500;}
</style>
<path class="st0" d="M382.3,15c-9.3,0-16.9,2.9-22.1,8.3s-8.1,13.1-8.1,22.7s2.9,17.3,8.1,22.7s12.8,8.4,22.1,8.4
	c9.3,0,16.8-3,22-8.4c5.1-5.4,8-13.1,8-22.7c0-9.5-2.9-17.3-8-22.7C399.1,17.9,391.6,15,382.3,15z M393.6,60.5
	c-2.7,3.4-6.5,5.3-11.3,5.3c-4.9,0-8.8-1.8-11.5-5.3c-2.7-3.4-4.2-8.4-4.2-14.6s1.5-11.1,4.2-14.5c2.7-3.3,6.6-5.2,11.5-5.2
	c4.8,0,8.7,1.8,11.4,5.2c2.7,3.4,4.1,8.3,4.1,14.5S396.4,57.1,393.6,60.5z"/>
<path class="st0" d="M170.5,67.8c-0.8-1.4-1.8-2.4-2.9-3c-1.2-0.6-2.4-0.7-3.7-0.5l-1.2,0.4c-1.4,0.4-2.8,0.6-4.3,0.8
	c-1.5,0.2-3.1,0.2-4.9,0.2c-5.1,0-9.1-1.8-11.9-5.2c-2.8-3.4-4.3-8.4-4.3-14.6s1.5-11.1,4.3-14.5c2.7-3.3,6.8-5.2,11.9-5.2
	c2.2,0,4,0.1,5.6,0.3c1.6,0.2,3,0.5,4.5,0.9l0.7,0.2c1.2,0.1,2.4-0.1,3.4-0.7s1.9-1.5,2.7-2.8V24l1.9-5.5l0.1-0.1v-0.1V18l-0.3-0.1
	c-0.1-0.1-0.1-0.1-0.2-0.1l-4.4-1.3c-2.2-0.7-4.4-1.1-6.6-1.4c-2.3-0.3-4.7-0.4-7.5-0.4c-9.4,0-17.1,2.9-22.4,8.3
	c-5.3,5.4-8.3,13.1-8.3,22.7s2.9,17.3,8.3,22.7c5.3,5.4,13,8.4,22.4,8.4c2.7,0,5-0.1,7.3-0.5c2.3-0.3,4.5-0.8,7-1.6l4.6-1.4h0.2
	l0.2-0.1l0.2-0.1C172.2,71.5,171.3,69.6,170.5,67.8L170.5,67.8z"/>
<path class="st0" d="M327.9,41.6l-8.1-2.7c-2.6-0.8-4.9-1.7-6.4-2.7c-1.6-1-2.5-2.3-2.5-4.1c0-1.7,1-3.2,2.6-4.2
	c1.7-1,4.2-1.6,7.1-1.6c2.1,0,4.1,0.2,6.1,0.6c1.9,0.3,3.8,0.8,5.6,1.3c0.4,0.1,1.4,0.4,1.8,0.5c1.5,0.2,2.7,0,3.8-0.6
	c1-0.6,1.9-1.6,2.6-3c0.9-1.6,1.6-3.9,2.3-5.7c-2.3-0.7-4.6-1.4-7-2.1s-4.9-1.3-7.5-1.7c-2.5-0.4-5.1-0.5-7.7-0.5
	c-7.5,0-13.6,1.6-17.7,4.5c-4.2,2.9-6.5,7.3-6.5,12.7c0,4.4,1.1,7.8,3.8,10.5c2.8,2.7,7.2,4.9,13.9,7.1l8,2.8
	c2.2,0.7,4.5,1.6,6.2,2.8c1.7,1.1,2.9,2.5,2.9,4.2c0,3.2-1.8,4.7-4.1,5.5c-2.2,0.8-4.8,0.8-6.1,0.8c-2.3,0-4.5-0.2-6.8-0.5
	c-2.4-0.4-4.8-0.9-7.5-1.6l-2.6-0.7c-0.2,0-0.4-0.1-0.6-0.1c-0.3,0-0.5,0-0.7,0c-1.3,0-2.4,0.4-3.2,1c-1.1,0.7-1.8,1.9-2.3,2.8
	c-0.7,1.8-1.4,3.7-2.2,5.5c2.4,0.7,4.7,1.4,7,2c4.1,1.2,7.4,1.9,10.4,2.3s5.7,0.5,8.5,0.5c6.4,0,13.5-1,18.4-4.5
	c3.8-2.7,6.3-6.8,6.3-13.1c0-4.5-1.1-7.8-3.9-10.6C339.1,46.1,334.6,43.9,327.9,41.6z"/>
<path class="st0" d="M230.3,67.2c-1.5-3.1-2.7-5.9-2.8-6.1c-1-1.9-2.1-3.9-3.4-5.7c-1.3-1.8-2.8-3.4-4.8-4.5c0,0-0.2-0.1-0.4-0.2
	c-0.4-0.1-0.8-0.3-0.8-0.3s0.6-0.3,1-0.5c0.1,0,0.2-0.1,0.3-0.1c2.8-1.1,5.9-3.3,8.1-6.4c1.8-2.5,2.9-5.7,2.9-9.3
	c0-5.7-2.1-10.3-6.1-13.4c-3.9-3.1-9.8-4.7-17.2-4.8s-14.8,0-22.2,0c-1.4,0-2.7,0.5-3.8,1.2c-1,0.8-1.8,1.9-2,3.1v55.9h14.4V27h13.2
	c2.7,0,5.1,0.8,6.6,2.3c1.6,1.4,2.5,3.4,2.5,5.9c0,2.7-0.9,4.7-2.7,6.1c-1.9,1.3-4.7,2-8.5,2h-0.8c-0.9,0-1.6,0.1-2.2,0.4
	c-0.6,0.3-1.2,0.6-1.6,1.2c-1,1.1-1.6,2.6-1.9,4.3c-0.3,1.6-0.3,3.4-0.2,5l0.1,0.3h0.2c5.2,0.2,8.4,1.4,10.8,3.5
	c2.4,2.1,4,5,5.6,8.5l2.1,4.7h0.1c1.2,2.1,2.4,3.4,3.6,4.2c1.3,0.7,2.6,0.9,4.2,0.9h9.7l0.4-0.1l-0.2-0.3
	C233.5,73.9,231.7,70.3,230.3,67.2z"/>
<path class="st0" d="M461.7,65.1h-28.6V16.4c0-0.2,0-0.5-0.6-0.5h-13.1c-0.3,0-0.5,0.1-0.6,0.2s-0.1,0.2-0.1,0.3v59.7h38.4
	c1.4-0.1,2.7-0.7,3.6-1.6c1-0.9,1.6-2.1,1.6-3.4v-5.5C462.3,65.4,462.3,65.1,461.7,65.1z"/>
<path class="st0" d="M281.4,27c1.3-0.1,2.5-0.5,3.4-1.2s1.4-1.6,1.8-2.8c0.5-1.6,2.2-7.1,2.2-7.1s-41,0-41.9,0
	c-1.6,0-3.1,0.6-4.1,1.5c-1.1,0.9-1.7,2.3-1.7,3.7V71c0,1.4,0.7,2.7,1.7,3.6s2.5,1.5,4.1,1.5c0.3,0,0.4,0,0.4,0
	c11.4,0,25.3,0,35.7,0c3.7,0,5.3-2.7,5.3-4.9c0-1.4,0-6.1,0-6.1h-32.8V50.7c0,0,14.9,0,20.1,0c1.1,0,2.2-0.5,3.2-1
	c0.9-0.6,1.6-1.6,1.6-3.1v-6.4c0-0.3,0-0.5-0.6-0.5h-24.3V27H281.4z"/>
<path class="st0" d="M56.6,23.1L45.7,33.9L34.9,23.1c-0.1-0.1-0.4-0.2-0.6-0.2c-0.2,0-0.5,0.1-0.6,0.2l-15.1,15
	c-2.1,2-3.2,4.7-3.2,7.6s1.1,5.6,3.2,7.6l15.1,15c0.3,0.3,0.9,0.3,1.2,0l10.8-10.8l10.8,10.8c0.2,0.1,0.4,0.2,0.6,0.2
	c0.2,0,0.5-0.1,0.6-0.2l15.1-15c2.1-2,3.2-4.7,3.2-7.6s-1.2-5.6-3.2-7.6l-15.1-15C57.5,22.8,56.9,22.8,56.6,23.1z M68,48.4
	L57.2,59.1l-6.5-6.5l2.5-2.5c4.2-4.6-1.2-8.6-1.3-8.7L34.3,59.1L23.6,48.4c-1.5-1.5-1.5-3.9,0-5.4l10.8-10.7l6.5,6.5l-2.5,2.5
	c-4.2,4.6,1.2,8.6,1.3,8.7l17.7-17.6l10.8,10.7C69.4,44.5,69.4,46.9,68,48.4z"/>
<path class="st1" d="M45.8,0C20.5,0,0,20.5,0,45.7s20.5,45.7,45.7,45.7c25.3,0,45.8-20.5,45.8-45.7S71,0,45.8,0z M45.8,83.5
	C25,83.5,8,66.5,8,45.7S24.9,7.9,45.8,7.9c20.7,0,37.7,17,37.7,37.8S66.5,83.5,45.8,83.5z"/>
<g>
</g>
<g>
</g>
<g>
</g>
<g>
</g>
<g>
</g>
<g>
</g>
<g>
</g>
<g>
</g>
<g>
</g>
<g>
</g>
<g>
</g>
<g>
</g>
<g>
</g>
<g>
</g>
<g>
</g>
</svg>
